<?xml version="1.0" encoding="utf-8"?>
<!-- Generator: Adobe Illustrator 15.1.0, SVG Export Plug-In . SVG Version: 6.00 Build 0)  -->
<!DOCTYPE svg PUBLIC "-//W3C//DTD SVG 1.1//EN" "http://www.w3.org/Graphics/SVG/1.1/DTD/svg11.dtd">
<svg version="1.1"
	 id="svg2" xmlns:svg="http://www.w3.org/2000/svg" xmlns:dc="http://purl.org/dc/elements/1.1/" xmlns:cc="http://creativecommons.org/ns#" xmlns:rdf="http://www.w3.org/1999/02/22-rdf-syntax-ns#"
	 xmlns="http://www.w3.org/2000/svg" xmlns:xlink="http://www.w3.org/1999/xlink" x="0px" y="0px" width="129.285px" height="161px"
	 viewBox="0 0 129.285 161" enable-background="new 0 0 129.285 161" xml:space="preserve">
<g id="Page_1" transform="matrix(0.17893165,0,0,0.17893165,-129.37356,1149.0013)">
	<g id="BackBone.JS">
		<path id="Path" fill="#002A41" stroke="#848484" d="M723.572-6419.94v485.001l360.999,205.778v-139.881l-241.504-137.663v-216.235
			l241.504,137.666v-128.882L723.572-6419.94z"/>
		<path id="path2996" fill="#0071B5" stroke="#848484" d="M1445.57-6419.94v485.001l-360.999,205.778v-139.881l241.502-137.663
			v-216.235l-241.502,137.666v-128.882L1445.57-6419.94z"/>
		<path id="path2998" fill="#0071B5" stroke="#848484" d="M723.572-5523.159v-484.999l360.999-205.783v139.881l-241.504,137.668
			v205.232l241.504-137.666v139.882L723.572-5523.159z"/>
		<path id="path3000" fill="#002A41" stroke="#848484" d="M1445.57-5523.159v-484.999l-360.999-205.783v139.881l241.502,137.668
			v205.232l-241.502-137.666v139.882L1445.57-5523.159z"/>
	</g>
</g>
</svg>
