<?xml version="1.0" encoding="utf-8"?>
<!-- Generator: Adobe Illustrator 15.1.0, SVG Export Plug-In . SVG Version: 6.00 Build 0)  -->
<!DOCTYPE svg PUBLIC "-//W3C//DTD SVG 1.1//EN" "http://www.w3.org/Graphics/SVG/1.1/DTD/svg11.dtd">
<svg version="1.1" id="Layer_1" xmlns="http://www.w3.org/2000/svg" xmlns:xlink="http://www.w3.org/1999/xlink" x="0px" y="0px"
	 width="24px" height="24px" viewBox="0 0 24 24" enable-background="new 0 0 24 24" xml:space="preserve">
<path fill="#0066CC" d="M12.247,20.271c-0.16-0.037-0.314-0.088-0.47-0.133c-0.04-0.012-0.079-0.023-0.117-0.035
	c-0.153-0.047-0.304-0.097-0.454-0.147c-0.021-0.008-0.042-0.017-0.061-0.022c-0.134-0.048-0.268-0.098-0.4-0.147
	c-0.038-0.015-0.075-0.028-0.112-0.044c-0.145-0.057-0.289-0.117-0.432-0.18c-0.028-0.013-0.057-0.025-0.085-0.039
	c-0.123-0.055-0.244-0.11-0.364-0.168c-0.035-0.018-0.069-0.032-0.105-0.049c-0.095-0.047-0.188-0.099-0.282-0.146
	c-0.063-0.033-0.125-0.063-0.188-0.099C9.064,19,8.952,18.938,8.84,18.874c-0.038-0.021-0.076-0.04-0.115-0.063
	c-0.148-0.086-0.295-0.177-0.439-0.269c-0.04-0.024-0.079-0.053-0.119-0.078c-0.104-0.067-0.209-0.137-0.313-0.208
	c-0.033-0.021-0.066-0.048-0.1-0.07c-0.099-0.07-0.198-0.141-0.294-0.213c-0.045-0.033-0.087-0.065-0.131-0.1
	c-0.089-0.068-0.179-0.139-0.266-0.208c-0.04-0.033-0.08-0.063-0.12-0.097c-0.113-0.094-0.223-0.186-0.333-0.28
	c-0.01-0.011-0.024-0.019-0.035-0.029c-0.119-0.104-0.235-0.21-0.35-0.317c-0.034-0.031-0.067-0.063-0.098-0.094
	c-0.085-0.082-0.168-0.162-0.251-0.246c-0.032-0.033-0.065-0.065-0.098-0.1c-0.105-0.107-0.207-0.216-0.308-0.326
	c-0.005-0.005-0.01-0.01-0.016-0.017c-0.106-0.115-0.209-0.235-0.313-0.354c-0.027-0.033-0.054-0.063-0.081-0.097
	c-0.076-0.092-0.152-0.187-0.225-0.278c-0.028-0.033-0.056-0.068-0.083-0.103c-0.088-0.116-0.175-0.229-0.259-0.347
	c-2.341-3.192-3.182-7.598-1.31-11.215L1.524,5.869c-2.124,3.054-1.86,7.029-0.237,10.275c0.039,0.078,0.078,0.154,0.12,0.231
	c0.025,0.048,0.048,0.099,0.075,0.146c0.015,0.029,0.032,0.058,0.047,0.084c0.028,0.054,0.057,0.103,0.084,0.151
	c0.05,0.089,0.102,0.177,0.154,0.267c0.029,0.047,0.06,0.097,0.089,0.145c0.059,0.096,0.119,0.188,0.179,0.281
	c0.026,0.039,0.051,0.081,0.077,0.117c0.085,0.127,0.172,0.252,0.26,0.377c0.002,0.005,0.006,0.008,0.008,0.011
	c0.014,0.021,0.029,0.039,0.043,0.06c0.076,0.105,0.156,0.213,0.237,0.316c0.029,0.037,0.06,0.076,0.09,0.113
	c0.071,0.091,0.145,0.18,0.219,0.27c0.029,0.033,0.056,0.066,0.085,0.1c0.1,0.119,0.201,0.235,0.306,0.351
	c0.002,0.003,0.004,0.005,0.006,0.006c0.004,0.005,0.008,0.009,0.011,0.015c0.101,0.11,0.205,0.221,0.311,0.326
	c0.032,0.035,0.065,0.068,0.099,0.102c0.081,0.082,0.165,0.162,0.248,0.242c0.036,0.032,0.068,0.064,0.102,0.098
	c0.113,0.105,0.225,0.208,0.339,0.311c0.002,0.002,0.004,0.004,0.006,0.004c0.019,0.018,0.04,0.033,0.06,0.051
	c0.101,0.088,0.205,0.175,0.309,0.262c0.042,0.033,0.085,0.066,0.128,0.102c0.085,0.069,0.171,0.137,0.257,0.202
	c0.045,0.034,0.091,0.07,0.137,0.104c0.095,0.068,0.191,0.141,0.29,0.207c0.034,0.023,0.068,0.05,0.104,0.074
	c0.01,0.006,0.02,0.014,0.029,0.021c0.091,0.063,0.187,0.124,0.281,0.187c0.04,0.024,0.079,0.055,0.121,0.08
	c0.146,0.092,0.292,0.182,0.439,0.271c0.041,0.022,0.081,0.046,0.122,0.067c0.109,0.063,0.219,0.125,0.33,0.187
	c0.06,0.03,0.121,0.063,0.181,0.094c0.079,0.04,0.157,0.083,0.236,0.123c0.018,0.009,0.037,0.019,0.054,0.024
	c0.032,0.017,0.063,0.031,0.097,0.048c0.124,0.059,0.249,0.118,0.375,0.174c0.027,0.013,0.052,0.024,0.079,0.035
	c0.144,0.063,0.288,0.124,0.435,0.182c0.035,0.017,0.071,0.028,0.106,0.042c0.137,0.053,0.274,0.104,0.412,0.152
	c0.017,0.007,0.034,0.013,0.052,0.018c0.152,0.055,0.305,0.104,0.458,0.15c0.038,0.012,0.074,0.021,0.111,0.033
	c0.157,0.047,0.313,0.103,0.474,0.133c10.278,1.875,13.266-6.178,13.266-6.178c-2.508,3.269-6.959,4.13-11.177,3.171L12.247,20.271z
	 M8.543,11.939c0.231,0.331,0.486,0.724,0.791,0.989c0.11,0.12,0.227,0.24,0.346,0.357c0.029,0.031,0.061,0.06,0.091,0.09
	c0.115,0.111,0.231,0.221,0.352,0.327c0.005,0.004,0.009,0.008,0.015,0.013c0.001,0.002,0.002,0.002,0.003,0.004
	c0.133,0.116,0.272,0.229,0.413,0.34c0.03,0.023,0.061,0.051,0.094,0.073c0.139,0.107,0.283,0.214,0.43,0.313
	c0.005,0.004,0.009,0.007,0.014,0.011c0.064,0.044,0.131,0.086,0.195,0.13c0.031,0.02,0.063,0.042,0.094,0.062
	c0.104,0.066,0.211,0.133,0.319,0.194c0.015,0.011,0.03,0.017,0.044,0.025c0.093,0.054,0.188,0.106,0.282,0.157
	c0.033,0.02,0.068,0.035,0.101,0.053c0.065,0.033,0.131,0.068,0.197,0.102c0.01,0.006,0.021,0.012,0.03,0.014
	c0.135,0.068,0.271,0.133,0.412,0.191c0.029,0.014,0.06,0.024,0.09,0.038c0.111,0.048,0.224,0.095,0.336,0.138
	c0.049,0.019,0.098,0.035,0.145,0.054c0.104,0.038,0.205,0.073,0.311,0.108c0.047,0.014,0.092,0.028,0.14,0.043
	c0.149,0.047,0.294,0.104,0.448,0.131C22.168,17.211,24,11.101,24,11.101c-1.65,2.379-4.85,3.515-8.264,2.627
	c-0.15-0.039-0.301-0.082-0.449-0.129c-0.045-0.016-0.089-0.029-0.135-0.045c-0.105-0.033-0.211-0.07-0.314-0.106
	c-0.048-0.021-0.095-0.036-0.143-0.056c-0.113-0.043-0.228-0.09-0.338-0.136c-0.03-0.014-0.062-0.026-0.092-0.039
	c-0.14-0.061-0.277-0.125-0.414-0.19c-0.07-0.034-0.14-0.071-0.207-0.106c-0.041-0.021-0.08-0.039-0.119-0.062
	c-0.09-0.049-0.178-0.099-0.262-0.147c-0.021-0.012-0.045-0.024-0.063-0.035c-0.107-0.062-0.214-0.128-0.318-0.194
	c-0.032-0.02-0.063-0.042-0.097-0.063c-0.068-0.045-0.137-0.091-0.205-0.137c-0.146-0.102-0.288-0.206-0.428-0.313
	c-0.033-0.026-0.065-0.05-0.098-0.076c-1.493-1.18-2.677-2.792-3.242-4.619c-0.59-1.895-0.462-4.023,0.56-5.75l-1.255,1.77
	C6.58,5.507,6.663,8.467,7.862,10.807c0.201,0.393,0.428,0.772,0.68,1.135L8.543,11.939z M16.909,9.204
	c0.065,0.025,0.131,0.046,0.198,0.068c0.029,0.009,0.058,0.019,0.086,0.027c0.095,0.029,0.187,0.064,0.283,0.081
	c4.381,0.847,5.57-2.248,5.887-2.704c-1.043,1.499-2.791,1.859-4.938,1.338c-0.17-0.042-0.355-0.103-0.521-0.162
	c-0.209-0.073-0.416-0.159-0.616-0.255c-0.382-0.184-0.745-0.404-1.082-0.66c-1.921-1.457-3.114-4.237-1.86-6.501L13.667,1.37
	c-0.907,1.332-0.995,2.989-0.366,4.461c0.662,1.563,2.021,2.79,3.605,3.372L16.909,9.204z"/>
</svg>
