<?xml version="1.0" encoding="utf-8"?>
<!-- Generator: Adobe Illustrator 15.1.0, SVG Export Plug-In . SVG Version: 6.00 Build 0)  -->
<!DOCTYPE svg PUBLIC "-//W3C//DTD SVG 1.1//EN" "http://www.w3.org/Graphics/SVG/1.1/DTD/svg11.dtd">
<svg version="1.1" id="Layer_1" xmlns="http://www.w3.org/2000/svg" xmlns:xlink="http://www.w3.org/1999/xlink" x="0px" y="0px"
	 width="116.929px" height="149.211px" viewBox="0 0 116.929 149.211" enable-background="new 0 0 116.929 149.211"
	 xml:space="preserve">
<path fill="#3DBEB3" d="M114.136,125.779L76.632,74.457l37.496-50.917l0.075-0.107c4.64-6.821,3.15-15.959-3.312-20.418
	C108.266,1.042,105.221,0,102.08,0c-4.641,0-8.969,2.28-11.875,6.256L58.522,49.633L26.697,6.32C24.067,2.36,19.68,0,14.939,0
	c-3.16,0-6.279,1.076-8.797,3.034C-0.373,7.55-1.945,16.672,2.65,23.432l37.575,51.025L2.69,125.821
	c-2.266,3.198-3.16,7.276-2.454,11.188c0.69,3.821,2.79,7.109,5.917,9.273c2.503,1.915,5.485,2.928,8.633,2.928
	c4.464,0,8.76-2.209,11.788-6.06l31.947-43.665l31.678,43.56l0.08,0.104c3.027,3.851,7.398,6.06,11.993,6.06
	c2.911,0,5.878-1,8.542-2.865c3.107-2.114,5.195-5.36,5.877-9.142C117.406,133.245,116.485,129.096,114.136,125.779z"/>
</svg>
